<mxfile host="app.diagrams.net" modified="2023-01-05T18:22:36.787Z" agent="5.0 (Macintosh; Intel Mac OS X 10_13_6) AppleWebKit/537.36 (KHTML, like Gecko) Chrome/108.0.0.0 Safari/537.36" etag="yV5croMDQ9xr334W5axG" version="20.8.1" type="github">
  <diagram id="4FmHZwsHNVrXR_6ccG2j" name="Page-1">
    <mxGraphModel dx="954" dy="648" grid="1" gridSize="10" guides="1" tooltips="1" connect="1" arrows="1" fold="1" page="1" pageScale="1" pageWidth="827" pageHeight="1169" math="0" shadow="0">
      <root>
        <mxCell id="0" />
        <mxCell id="1" parent="0" />
        <mxCell id="WEcJHV2EERmyVgvngbXX-12" style="edgeStyle=orthogonalEdgeStyle;rounded=0;orthogonalLoop=1;jettySize=auto;html=1;entryX=-0.005;entryY=0.054;entryDx=0;entryDy=0;entryPerimeter=0;" parent="1" source="AjDkekuh7N2Zji5cXWz1-16" target="WEcJHV2EERmyVgvngbXX-10" edge="1">
          <mxGeometry relative="1" as="geometry" />
        </mxCell>
        <mxCell id="AjDkekuh7N2Zji5cXWz1-16" value="&lt;span style=&quot;font-weight: 400;&quot;&gt;Redis Cluster&lt;/span&gt;" style="swimlane;fontStyle=1;align=center;verticalAlign=top;childLayout=stackLayout;horizontal=1;startSize=26;horizontalStack=0;resizeParent=1;resizeParentMax=0;resizeLast=0;collapsible=1;marginBottom=0;html=1;" parent="1" vertex="1">
          <mxGeometry x="50" y="120" width="160" height="60" as="geometry" />
        </mxCell>
        <mxCell id="AjDkekuh7N2Zji5cXWz1-17" value="&lt;meta charset=&quot;utf-8&quot;&gt;&lt;span style=&quot;color: rgb(0, 0, 0); font-family: Helvetica; font-size: 12px; font-style: normal; font-variant-ligatures: normal; font-variant-caps: normal; font-weight: 400; letter-spacing: normal; orphans: 2; text-align: left; text-indent: 0px; text-transform: none; widows: 2; word-spacing: 0px; -webkit-text-stroke-width: 0px; background-color: rgb(251, 251, 251); text-decoration-thickness: initial; text-decoration-style: initial; text-decoration-color: initial; float: none; display: inline !important;&quot;&gt;https://redis.io/docs/management/scaling/&lt;/span&gt;" style="text;strokeColor=none;fillColor=none;align=left;verticalAlign=top;spacingLeft=4;spacingRight=4;overflow=hidden;rotatable=0;points=[[0,0.5],[1,0.5]];portConstraint=eastwest;html=1;" parent="AjDkekuh7N2Zji5cXWz1-16" vertex="1">
          <mxGeometry y="26" width="160" height="26" as="geometry" />
        </mxCell>
        <mxCell id="AjDkekuh7N2Zji5cXWz1-18" value="" style="line;strokeWidth=1;fillColor=none;align=left;verticalAlign=middle;spacingTop=-1;spacingLeft=3;spacingRight=3;rotatable=0;labelPosition=right;points=[];portConstraint=eastwest;strokeColor=inherit;html=1;" parent="AjDkekuh7N2Zji5cXWz1-16" vertex="1">
          <mxGeometry y="52" width="160" height="8" as="geometry" />
        </mxCell>
        <mxCell id="AjDkekuh7N2Zji5cXWz1-20" value="&lt;span style=&quot;font-weight: 400;&quot;&gt;Consister Hashing&lt;/span&gt;" style="swimlane;fontStyle=1;align=center;verticalAlign=top;childLayout=stackLayout;horizontal=1;startSize=26;horizontalStack=0;resizeParent=1;resizeParentMax=0;resizeLast=0;collapsible=1;marginBottom=0;html=1;" parent="1" vertex="1">
          <mxGeometry x="320" y="120" width="160" height="60" as="geometry" />
        </mxCell>
        <mxCell id="AjDkekuh7N2Zji5cXWz1-21" value="&lt;span style=&quot;&quot;&gt;https://www.toptal.com/big-data/consistent-hashing&lt;/span&gt;" style="text;strokeColor=none;fillColor=none;align=left;verticalAlign=top;spacingLeft=4;spacingRight=4;overflow=hidden;rotatable=0;points=[[0,0.5],[1,0.5]];portConstraint=eastwest;html=1;" parent="AjDkekuh7N2Zji5cXWz1-20" vertex="1">
          <mxGeometry y="26" width="160" height="26" as="geometry" />
        </mxCell>
        <mxCell id="AjDkekuh7N2Zji5cXWz1-22" value="" style="line;strokeWidth=1;fillColor=none;align=left;verticalAlign=middle;spacingTop=-1;spacingLeft=3;spacingRight=3;rotatable=0;labelPosition=right;points=[];portConstraint=eastwest;strokeColor=inherit;html=1;" parent="AjDkekuh7N2Zji5cXWz1-20" vertex="1">
          <mxGeometry y="52" width="160" height="8" as="geometry" />
        </mxCell>
        <mxCell id="WEcJHV2EERmyVgvngbXX-9" value="&lt;span style=&quot;font-weight: 400;&quot;&gt;CAP Theorem&lt;/span&gt;" style="swimlane;fontStyle=1;align=center;verticalAlign=top;childLayout=stackLayout;horizontal=1;startSize=26;horizontalStack=0;resizeParent=1;resizeParentMax=0;resizeLast=0;collapsible=1;marginBottom=0;html=1;" parent="1" vertex="1">
          <mxGeometry x="320" y="20" width="160" height="60" as="geometry" />
        </mxCell>
        <mxCell id="WEcJHV2EERmyVgvngbXX-10" value="http://ksat.me/a-plain-english-introduction-to-cap-theorem" style="text;strokeColor=none;fillColor=none;align=left;verticalAlign=top;spacingLeft=4;spacingRight=4;overflow=hidden;rotatable=0;points=[[0,0.5],[1,0.5]];portConstraint=eastwest;html=1;" parent="WEcJHV2EERmyVgvngbXX-9" vertex="1">
          <mxGeometry y="26" width="160" height="26" as="geometry" />
        </mxCell>
        <mxCell id="WEcJHV2EERmyVgvngbXX-11" value="" style="line;strokeWidth=1;fillColor=none;align=left;verticalAlign=middle;spacingTop=-1;spacingLeft=3;spacingRight=3;rotatable=0;labelPosition=right;points=[];portConstraint=eastwest;strokeColor=inherit;html=1;" parent="WEcJHV2EERmyVgvngbXX-9" vertex="1">
          <mxGeometry y="52" width="160" height="8" as="geometry" />
        </mxCell>
        <mxCell id="WEcJHV2EERmyVgvngbXX-13" value="" style="edgeStyle=orthogonalEdgeStyle;rounded=0;orthogonalLoop=1;jettySize=auto;html=1;entryX=0;entryY=0.5;entryDx=0;entryDy=0;" parent="1" source="AjDkekuh7N2Zji5cXWz1-17" target="AjDkekuh7N2Zji5cXWz1-21" edge="1">
          <mxGeometry relative="1" as="geometry" />
        </mxCell>
      </root>
    </mxGraphModel>
  </diagram>
</mxfile>
